<?xml version="1.0" encoding="UTF-8"?>
<svg id="Calque_1" xmlns="http://www.w3.org/2000/svg" version="1.1" viewBox="0 0 987 135.9">
  <!-- Generator: Adobe Illustrator 29.6.0, SVG Export Plug-In . SVG Version: 2.1.1 Build 207)  -->
  <defs>
    <style>
      .st0 {
        fill: #2b0502;
      }

      .st1 {
        fill: #e73e01;
      }
    </style>
  </defs>
  <g>
    <path class="st0" d="M0,10.4v99.1h19.7v-54.5c.1,0,25,26.1,25,26.1l25-26.1v33.1h19.7V10.4h-6l-38.6,42.9L6.1,10.4H0Z"/>
    <circle class="st1" cx="79.7" cy="101.7" r="9.8"/>
  </g>
  <path class="st0" d="M117.8,110.5h0c-4.2,0-7.7-.8-10.5-2.4-2.8-1.6-4.9-3.7-6.2-6.4-1.3-2.7-2-5.6-2-8.8h0c0-4,.9-7.3,2.7-9.8,1.8-2.5,4.2-4.6,7.1-6.2s5.9-2.9,9.2-3.9c3.2-1,6.3-2,9.2-3,2.9-1,5.3-2.1,7.1-3.5,1.8-1.4,2.7-3.1,2.7-5.2h0v-10.9c0-2.4-.4-4.6-1.2-6.5s-2-3.4-3.6-4.4c-1.6-1-3.8-1.5-6.4-1.5h0c-1.9,0-3.7.3-5.6.8s-3.4,1.4-4.6,2.6h0c2.6.9,4.6,2.4,6.1,4.3,1.4,1.9,2.2,4.1,2.2,6.5h0c0,3.2-1.1,5.7-3.3,7.6-2.2,1.9-4.8,2.8-7.8,2.8h0c-3.4,0-5.9-1-7.6-3.2-1.7-2.1-2.6-4.6-2.6-7.6h0c0-2.7.7-4.9,2-6.7s3.2-3.5,5.7-5h0c2.6-1.5,5.8-2.7,9.4-3.5,3.7-.8,7.7-1.3,12-1.3h0c4.3,0,8.2.4,11.6,1.3,3.5.9,6.3,2.5,8.7,4.8h0c2.1,2.1,3.5,4.8,4.2,7.9.7,3.1,1,7.1,1,11.8h0v38.1c0,2.3.2,3.9.7,4.8.5.9,1.3,1.3,2.4,1.3h0c.8,0,1.7-.2,2.4-.7.8-.5,1.7-1,2.6-1.7h0l1.4,2.4c-2,1.7-4.2,3-6.8,3.9-2.6.9-5.4,1.3-8.6,1.3h0c-3.5,0-6.2-.5-8.3-1.5-2.1-1-3.5-2.3-4.4-4-.9-1.7-1.3-3.6-1.3-5.9h0c-2.2,3.5-4.9,6.3-8.1,8.3-3.2,2-7,3-11.6,3ZM127.7,101.5h0c1.9,0,3.6-.4,5.1-1.3,1.5-.9,3-2.4,4.4-4.4h0v-28.7c-.8,1.4-2,2.7-3.5,3.8-1.5,1.1-3.1,2.3-4.8,3.4-1.7,1.2-3.3,2.5-4.8,3.9-1.5,1.4-2.8,3.1-3.7,5.2-.9,2.1-1.4,4.5-1.4,7.4h0c0,3.6.8,6.3,2.4,8.1,1.6,1.8,3.7,2.7,6.3,2.7Z"/>
  <path class="st0" d="M219.1,35.2h0c3,0,5.4.6,7.3,1.9,1.9,1.3,3.2,2.9,4.1,4.8.9,2,1.3,4,1.3,6.2h0c0,3.5-1,6.3-3,8.5-2,2.2-4.6,3.3-7.9,3.3h0c-3.3,0-5.8-.8-7.6-2.4s-2.7-3.8-2.7-6.5h0c0-2.6.6-4.8,1.8-6.5,1.2-1.7,2.6-3.2,4.4-4.4h0c-1.3-.4-2.6-.3-3.9.1h0c-1.8.3-3.5,1-5,2.2-1.6,1.2-2.9,2.6-4.1,4.3-1.1,1.7-2,3.6-2.7,5.6s-1,3.9-1,5.8h0v37.1c0,4.5,1.1,7.5,3.3,9.1,2.2,1.6,5.5,2.4,9.9,2.4h0v2.9c-2.1,0-5.3-.2-9.4-.3-4.1-.1-8.4-.2-12.9-.2h0c-3.7,0-7.5,0-11.3.2-3.8.1-6.7.3-8.7.3h0v-2.9c3.3,0,5.6-.7,6.9-2.1,1.4-1.4,2-4.1,2-8h0v-44.1c0-4.2-.6-7.3-1.9-9.3-1.3-2-3.6-3-7.1-3h0v-2.9c3,.3,5.9.4,8.7.4h0c3.9,0,7.6-.2,11-.5s6.6-.8,9.4-1.5h0v13c1.1-2.5,2.6-4.8,4.5-6.9s4-3.7,6.4-4.8,5.1-1.8,8.1-1.8Z"/>
  <path class="st0" d="M263.5,135.8h0c-5.8,0-10.9-.5-15.5-1.5-4.5-1-8.1-2.5-10.6-4.5-2.6-2-3.9-4.5-3.9-7.4h0c0-2.9,1.3-5.5,3.9-7.8,2.6-2.3,6.5-4.1,11.6-5.4h0l1.3,2.2c-1.8,1.4-3.1,2.9-3.8,4.6-.8,1.6-1.2,3.3-1.2,5.1h0c0,3.9,1.8,6.9,5.4,9,3.6,2.1,8.5,3.1,14.6,3.1h0c4.2,0,8-.6,11.3-1.7,3.3-1.1,5.9-2.8,7.8-5,1.9-2.2,2.9-5,2.9-8.3h0c0-2.8-1-5.2-3.1-7.1-2.1-1.9-6.2-2.9-12.3-2.9h-8.7c-3.8,0-7.2-.4-10-1.3s-5.1-2.2-6.7-4-2.4-4.1-2.4-6.9h0c0-3.9,1.5-7.4,4.6-10.4,3.1-3,7.7-5.8,13.7-8.4h0l1.4,1.1c-1.8,1.1-3.4,2.3-5,3.6s-2.3,2.9-2.3,4.8h0c0,3,1.9,4.5,5.6,4.5h15.3c5.1,0,9.7.6,13.8,1.8s7.3,3.2,9.7,5.9c2.4,2.8,3.6,6.3,3.6,10.7h0c0,4.6-1.5,8.8-4.4,12.7-2.9,3.9-7.4,7.1-13.5,9.4-6.1,2.4-13.8,3.6-23.1,3.6ZM264.9,79.7h0c-5.3,0-10.1-.8-14.3-2.4-4.2-1.6-7.5-4-9.9-7.3s-3.6-7.5-3.6-12.6h0c0-5.1,1.2-9.4,3.6-12.7,2.4-3.3,5.7-5.7,9.9-7.3,4.2-1.5,9-2.3,14.3-2.3h0c5.3,0,10.1.8,14.3,2.3,4.2,1.5,7.5,4,9.9,7.3,2.4,3.3,3.6,7.5,3.6,12.7h0c0,5.1-1.2,9.3-3.6,12.6s-5.7,5.7-9.9,7.3c-4.2,1.6-9,2.4-14.3,2.4ZM264.9,77.2h0c2.5,0,4.5-1.4,5.9-4.3,1.4-2.8,2.1-8,2.1-15.5h0c0-7.5-.7-12.6-2.1-15.5-1.4-2.8-3.4-4.3-5.9-4.3h0c-2.4,0-4.4,1.4-5.8,4.3-1.4,2.8-2.2,8-2.2,15.5h0c0,7.5.7,12.6,2.2,15.5,1.4,2.8,3.4,4.3,5.8,4.3ZM286.7,47.2h0l-2.8-1c1.4-3.6,3.7-6.7,6.8-9.1,3.1-2.4,6.5-3.6,10.1-3.6h0c3,0,5.2.8,6.8,2.5,1.5,1.6,2.3,3.8,2.3,6.4h0c0,2.8-.7,4.9-2.2,6.2-1.5,1.4-3.2,2-5,2h0c-1.6,0-3.1-.6-4.4-1.7s-2.1-2.8-2.3-5.1c-.2-2.3.6-5.2,2.4-8.9h0l1,.8c-3.5,1.3-6.2,2.8-8,4.6-1.8,1.7-3.3,4-4.6,6.9Z"/>
  <path class="st0" d="M349.9,35.2h0c6.8,0,12.8,1.3,17.9,3.8s9.1,6.6,12,12.2c2.9,5.6,4.3,13,4.3,22.3h0c0,9.2-1.4,16.6-4.3,22.2-2.9,5.6-6.9,9.6-12,12.1s-11.1,3.8-17.9,3.8h0c-6.6,0-12.5-1.3-17.7-3.8s-9.2-6.6-12.2-12.1c-2.9-5.6-4.4-13-4.4-22.2h0c0-9.2,1.5-16.7,4.4-22.3,2.9-5.6,7-9.7,12.2-12.2s11.1-3.8,17.7-3.8ZM349.9,38h0c-3.7,0-6.9,2.8-9.4,8.3-2.5,5.6-3.8,14.6-3.8,27.1h0c0,12.5,1.3,21.5,3.8,27s5.6,8.3,9.4,8.3h0c3.8,0,7-2.8,9.4-8.3s3.7-14.5,3.7-27h0c0-12.5-1.2-21.5-3.7-27.1-2.5-5.6-5.6-8.3-9.4-8.3Z"/>
  <path class="st0" d="M421.3,14.2h0v23h16.5v2.8h-16.5v56.6c0,2.8.5,4.8,1.5,5.9s2.6,1.8,4.6,1.8h0c1.7,0,3.4-.6,5-1.9,1.7-1.3,3.2-3.4,4.5-6.5h0l2.4,1.3c-1.5,4.2-3.8,7.7-6.8,10.4s-7.2,4.1-12.4,4.1h0c-3.1,0-5.8-.4-8.1-1.2-2.3-.8-4.3-2-5.9-3.6h0c-2.1-2.1-3.4-4.6-4.1-7.6-.7-3-1-7-1-11.8h0v-47.3h-11.8v-2.8h11.8v-18.5c3.9,0,7.5-.3,10.9-1,3.3-.7,6.4-1.8,9.3-3.4Z"/>
  <path class="st0" d="M520.3,10.4h0v2.8c-3.2,0-5.6.4-7.2,1-1.6.6-2.7,1.7-3.3,3.4s-.8,4.2-.8,7.6h0v71.1c0,2.9.2,5,.6,6.4.4,1.4,1.3,2.3,2.5,2.8s3.2.7,5.7.7h6.9c3.2,0,6.2-.7,9-2.2,2.8-1.5,5.3-3.6,7.6-6.4,2.2-2.8,4.1-6,5.6-9.9,1.5-3.8,2.6-8.1,3.4-12.7h3.2c-.3,3.2-.4,7.3-.4,12.3h0c0,2.1,0,5.3.1,9.4,0,4.1.4,8.4.8,12.7h0c-4.8-.2-10.1-.3-16.1-.3-6,0-11.3,0-16,0h-9c-3.6,0-7.6,0-11.8,0-4.2,0-8.4,0-12.7.1-4.3,0-8.4.1-12.2.2h0v-2.8c3-.2,5.2-.6,6.7-1.1,1.5-.6,2.5-1.7,3-3.4.5-1.7.8-4.2.8-7.6h0V25.2c0-3.5-.3-6-.8-7.6s-1.5-2.8-3.1-3.4-3.8-1-6.6-1h0v-2.8c2.3,0,5.5.2,9.4.3s8.2.1,12.7.1h0c4.1,0,8.1,0,12.1-.1,4,0,7.3-.2,9.9-.3Z"/>
  <path class="st0" d="M579.6,110.5h0c-4.2,0-7.7-.8-10.5-2.4-2.8-1.6-4.9-3.7-6.2-6.4-1.3-2.7-2-5.6-2-8.8h0c0-4,.9-7.3,2.7-9.8,1.8-2.5,4.2-4.6,7.1-6.2,2.9-1.6,6-2.9,9.2-3.9,3.2-1,6.3-2,9.2-3,2.9-1,5.3-2.1,7.1-3.5,1.8-1.4,2.7-3.1,2.7-5.2h0v-10.9c0-2.4-.4-4.6-1.2-6.5s-2-3.4-3.6-4.4c-1.6-1-3.8-1.5-6.4-1.5h0c-1.9,0-3.7.3-5.6.8s-3.4,1.4-4.6,2.6h0c2.6.9,4.6,2.4,6.1,4.3,1.4,1.9,2.2,4.1,2.2,6.5h0c0,3.2-1.1,5.7-3.3,7.6-2.2,1.9-4.8,2.8-7.8,2.8h0c-3.4,0-5.9-1-7.6-3.2-1.7-2.1-2.6-4.6-2.6-7.6h0c0-2.7.7-4.9,2-6.7s3.2-3.5,5.7-5h0c2.6-1.5,5.8-2.7,9.4-3.5,3.7-.8,7.7-1.3,12-1.3h0c4.3,0,8.2.4,11.6,1.3,3.5.9,6.3,2.5,8.7,4.8h0c2.1,2.1,3.5,4.8,4.2,7.9.7,3.1,1,7.1,1,11.8h0v38.1c0,2.3.2,3.9.7,4.8.5.9,1.3,1.3,2.4,1.3h0c.8,0,1.7-.2,2.5-.7.8-.5,1.7-1,2.6-1.7h0l1.4,2.4c-2,1.7-4.2,3-6.8,3.9-2.6.9-5.4,1.3-8.6,1.3h0c-3.5,0-6.2-.5-8.3-1.5-2.1-1-3.5-2.3-4.4-4s-1.3-3.6-1.3-5.9h0c-2.2,3.5-4.9,6.3-8.1,8.3-3.2,2-7,3-11.6,3ZM589.6,101.5h0c1.9,0,3.6-.4,5.1-1.3,1.5-.9,3-2.4,4.4-4.4h0v-28.7c-.8,1.4-2,2.7-3.5,3.8-1.5,1.1-3.1,2.3-4.8,3.4-1.7,1.2-3.3,2.5-4.8,3.9-1.5,1.4-2.8,3.1-3.7,5.2-.9,2.1-1.4,4.5-1.4,7.4h0c0,3.6.8,6.3,2.4,8.1s3.7,2.7,6.3,2.7Z"/>
  <path class="st0" d="M661.9,35.6h0v60.9c0,3.9.7,6.6,2,8,1.4,1.4,3.7,2.1,6.9,2.1h0v2.9c-1.7,0-4.3-.2-7.8-.3s-7.1-.2-10.8-.2h0c-3.6,0-7.3,0-11.1.2-3.7.1-6.5.3-8.4.3h0v-2.9c3.3,0,5.6-.7,6.9-2.1,1.4-1.4,2-4.1,2-8h0v-44.1c0-4.2-.6-7.3-1.9-9.3-1.3-2-3.6-3-7.1-3h0v-2.9c3,.3,5.9.4,8.7.4h0c3.9,0,7.6-.2,11-.5,3.4-.3,6.6-.8,9.5-1.5Z"/>
  <path class="st1" d="M651,1h0c3.9,0,7,1,9.3,2.9,2.3,1.9,3.4,4.5,3.4,7.9h0c0,3.4-1.1,6-3.4,7.9s-5.4,2.9-9.3,2.9h0c-3.9,0-7-1-9.3-2.9s-3.4-4.5-3.4-7.9h0c0-3.4,1.1-6,3.4-7.9,2.3-1.9,5.4-2.9,9.3-2.9Z"/>
  <path class="st0" d="M705.3,14.2h0v23h16.5v2.8h-16.5v56.6c0,2.8.5,4.8,1.5,5.9,1,1.2,2.6,1.8,4.6,1.8h0c1.7,0,3.4-.6,5-1.9,1.7-1.3,3.2-3.4,4.5-6.5h0l2.4,1.3c-1.5,4.2-3.8,7.7-6.8,10.4s-7.2,4.1-12.4,4.1h0c-3.1,0-5.8-.4-8.1-1.2-2.3-.8-4.3-2-5.9-3.6h0c-2.1-2.1-3.4-4.6-4.1-7.6-.7-3-1-7-1-11.8h0v-47.3h-11.8v-2.8h11.8v-18.5c3.9,0,7.5-.3,10.9-1,3.3-.7,6.4-1.8,9.3-3.4Z"/>
  <path class="st0" d="M754.6,0h0v48.2c2.3-4.9,5.5-8.2,9.5-10.2s8.4-2.9,13.4-2.9h0c4,0,7.2.5,9.7,1.5,2.4,1,4.3,2.3,5.7,4h0c1.6,1.8,2.7,4.1,3.4,6.9.7,2.8,1.1,6.6,1,11.3h0v37.7c0,3.9.7,6.6,2,8,1.4,1.4,3.7,2.1,6.9,2.1h0v2.9c-1.8,0-4.5-.2-8.1-.3-3.6-.1-7.1-.2-10.4-.2h0c-3.6,0-7.2,0-10.6.2-3.4.1-5.9.3-7.6.3h0v-2.9c2.8,0,4.8-.7,5.9-2.1,1.1-1.4,1.7-4.1,1.7-8h0v-43.5c0-2.3-.2-4.4-.7-6.1-.5-1.7-1.3-3.1-2.6-4.1-1.3-1-3.1-1.5-5.4-1.5h0c-2.5,0-4.8.7-6.9,2-2.1,1.4-3.8,3.2-5,5.7s-1.9,5.2-1.9,8.4h0v39.1c0,3.9.6,6.6,1.7,8,1.1,1.4,3.1,2.1,5.9,2.1h0v2.9c-1.7,0-4.2-.2-7.4-.3-3.3-.1-6.6-.2-9.9-.2h0c-3.6,0-7.3,0-11,.2-3.7.1-6.5.3-8.3.3h0v-2.9c3.3,0,5.6-.7,6.9-2.1,1.4-1.4,2-4.1,2-8h0V16.8c0-4.2-.6-7.3-1.9-9.3-1.3-2-3.6-3-7.1-3h0V1.6c3,.3,5.9.4,8.7.4h0c3.8,0,7.5-.2,10.9-.5,3.5-.3,6.6-.8,9.5-1.5Z"/>
  <path class="st0" d="M840.4,35.6h0v60.9c0,3.9.7,6.6,2,8,1.4,1.4,3.7,2.1,6.9,2.1h0v2.9c-1.7,0-4.3-.2-7.8-.3s-7.1-.2-10.8-.2h0c-3.6,0-7.3,0-11.1.2-3.7.1-6.5.3-8.4.3h0v-2.9c3.3,0,5.6-.7,6.9-2.1,1.4-1.4,2-4.1,2-8h0v-44.1c0-4.2-.6-7.3-1.9-9.3-1.3-2-3.6-3-7.1-3h0v-2.9c3,.3,5.9.4,8.7.4h0c3.9,0,7.6-.2,11-.5,3.4-.3,6.6-.8,9.5-1.5Z"/>
  <path class="st1" d="M829.5,1h0c3.9,0,7,1,9.3,2.9,2.3,1.9,3.4,4.5,3.4,7.9h0c0,3.4-1.1,6-3.4,7.9s-5.4,2.9-9.3,2.9h0c-3.9,0-7-1-9.3-2.9s-3.4-4.5-3.4-7.9h0c0-3.4,1.1-6,3.4-7.9,2.3-1.9,5.4-2.9,9.3-2.9Z"/>
  <path class="st0" d="M891.5,35.2h0c8.2,0,14.7,2.4,19.3,7.3,4.7,4.9,7,12.8,7,23.8h-46.1l-.3-2.7h28.7c0-4.6-.2-8.8-.8-12.7-.7-3.9-1.7-7-3.1-9.3-1.4-2.3-3.3-3.5-5.6-3.5h0c-3.3,0-6,2.1-8.3,6.2-2.3,4.1-3.7,10.9-4.1,20.4h0l.4.8c0,1.1-.2,2.3-.2,3.5s0,2.5,0,3.8h0c0,6.4.9,11.7,2.7,15.7,1.8,4,4.1,6.9,6.9,8.8s5.6,2.7,8.5,2.7h0c2,0,4-.3,6.1-.9,2.1-.6,4.2-1.7,6.4-3.4s4.2-3.9,6-6.9h0l2.5.8c-1.1,3.5-2.9,7-5.3,10.4-2.4,3.4-5.5,6.1-9.2,8.3-3.7,2.1-8.2,3.2-13.4,3.2h0c-6.3,0-11.9-1.4-16.8-4.1-4.9-2.7-8.7-6.8-11.4-12.3-2.8-5.5-4.1-12.5-4.1-21h0c0-8.7,1.5-15.9,4.4-21.7,2.9-5.8,7-10.1,12.2-12.9,5.2-2.8,11.1-4.3,17.7-4.3Z"/>
  <path class="st0" d="M974.1,35.2h0c3,0,5.4.6,7.3,1.9s3.2,2.9,4.1,4.8c.9,2,1.3,4,1.3,6.2h0c0,3.5-1,6.3-3,8.5-2,2.2-4.6,3.3-7.9,3.3h0c-3.3,0-5.8-.8-7.6-2.4-1.8-1.6-2.7-3.8-2.7-6.5h0c0-2.6.6-4.8,1.8-6.5,1.2-1.7,2.6-3.2,4.4-4.4h0c-1.3-.4-2.6-.3-3.9.1h0c-1.8.3-3.5,1-5,2.2-1.6,1.2-2.9,2.6-4.1,4.3s-2,3.6-2.7,5.6c-.7,2-1,3.9-1,5.8h0v37.1c0,4.5,1.1,7.5,3.3,9.1,2.2,1.6,5.5,2.4,9.9,2.4h0v2.9c-2.1,0-5.3-.2-9.4-.3-4.1-.1-8.4-.2-12.9-.2h0c-3.7,0-7.5,0-11.3.2-3.8.1-6.7.3-8.7.3h0v-2.9c3.3,0,5.6-.7,6.9-2.1,1.4-1.4,2-4.1,2-8h0v-44.1c0-4.2-.6-7.3-1.9-9.3-1.3-2-3.6-3-7.1-3h0v-2.9c3,.3,5.9.4,8.7.4h0c3.9,0,7.6-.2,11-.5,3.4-.3,6.6-.8,9.4-1.5h0v13c1.1-2.5,2.6-4.8,4.5-6.9s4-3.7,6.4-4.8c2.4-1.2,5.1-1.8,8.1-1.8Z"/>
</svg>